<svg width="1024" height="1024" viewBox="0 0 1024 1024" fill="none" xmlns="http://www.w3.org/2000/svg">
<path d="M700.751 335.574C710.694 335.393 720.84 337.714 730.274 342.759C760.463 358.908 772.132 397.071 756.367 427.993C740.622 458.876 703.45 470.871 673.271 454.799H673.183C642.994 438.65 631.286 400.488 647.052 369.566C657.89 348.307 678.867 335.982 700.74 335.615L700.751 335.574ZM721.836 624.048L806.971 456.849C816.537 439.479 822.093 419.448 822.426 398.105C823.491 329.809 770.318 273.577 703.642 272.485H700.52C635.258 273.108 582.051 326.929 581.003 394.158C580.67 415.467 585.577 435.641 594.57 453.296C594.629 453.387 594.658 453.387 594.688 453.417L681.593 624.048C681.593 624.048 691.654 644.728 701.715 644.728C711.775 644.728 721.836 624.048 721.836 624.048Z" fill="white"/>
<path d="M389.836 336.375C389.836 301.09 362.811 272.485 329.473 272.485C296.135 272.485 269.109 301.09 269.109 336.375V490.292C269.109 525.578 296.135 554.182 329.473 554.182C362.811 554.182 389.836 525.578 389.836 490.292V336.375Z" fill="white"/>
<path d="M314.381 701.068V614.546C314.381 606.212 321.138 599.455 329.472 599.455C337.806 599.455 344.563 606.212 344.563 614.546V701.068C344.563 709.402 337.806 716.158 329.472 716.158C321.138 716.158 314.381 709.402 314.381 701.068Z" fill="white"/>
<path d="M440.697 488.799C449.025 489.107 455.527 496.108 455.219 504.437C454.072 535.473 440.231 564.692 416.899 586.066C393.596 607.413 362.605 619.331 330.433 619.572C298.26 619.814 267.079 608.365 243.425 587.378C219.744 566.367 205.411 537.369 203.737 506.356C203.288 498.034 209.67 490.922 217.992 490.473C226.315 490.024 233.425 496.407 233.874 504.729C235.098 527.392 245.581 548.942 263.456 564.802C281.359 580.685 305.263 589.579 330.206 589.392C355.148 589.204 378.89 579.953 396.512 563.81C414.106 547.693 424.22 525.998 425.058 503.322C425.366 494.993 432.368 488.491 440.697 488.799Z" fill="white"/>
<path d="M203.714 503.88V423.395C203.714 415.061 210.471 408.304 218.806 408.304C227.14 408.304 233.897 415.061 233.897 423.395V503.88C233.897 512.214 227.14 518.971 218.806 518.971C210.471 518.971 203.714 512.214 203.714 503.88Z" fill="white"/>
<path d="M425.047 503.88V423.395C425.047 415.061 431.804 408.304 440.139 408.304C448.473 408.304 455.23 415.061 455.23 423.395V503.88C455.23 512.214 448.473 518.971 440.139 518.971C431.804 518.971 425.047 512.214 425.047 503.88Z" fill="white"/>
<path d="M551.715 609.529C561.06 609.797 568.489 614.183 573.84 620.174C578.97 625.917 582.31 633.195 584.697 640.135C589.443 653.932 592.136 671.832 594.652 687.627C597.322 704.392 599.83 719.092 603.809 729.628C606.684 737.243 609.011 739.443 610.233 740.068C610.896 739.457 612.097 738.191 613.868 735.697C615.802 732.974 617.848 729.622 620.279 725.511C622.613 721.565 625.317 716.892 628.209 712.28C639.524 694.239 657.907 670.085 691.562 669.88H701.714C710.048 669.88 716.805 676.636 716.805 684.97C716.805 693.305 710.048 700.062 701.714 700.062H691.746L690.97 700.074C674.767 700.51 664.332 711.489 653.779 728.316C651.163 732.487 648.791 736.593 646.259 740.875C643.825 744.991 641.215 749.316 638.477 753.172C633.819 759.732 625.104 770.486 611.169 770.486C590.6 770.486 580.556 753.486 575.573 740.291C570.292 726.304 567.384 708.307 564.846 692.375C562.154 675.474 559.846 660.676 556.157 649.951C554.326 644.629 552.59 641.689 551.331 640.28C551.294 640.238 551.257 640.2 551.223 640.164C551.047 640.387 550.84 640.669 550.602 641.022C548.641 643.941 546.473 649.204 544.43 657.356C540.378 673.525 538.072 695.565 535.634 719.215C533.276 742.095 530.787 766.586 526.094 785.315C523.765 794.611 520.573 803.888 515.695 811.148C510.62 818.699 502.374 825.819 490.442 825.819C479.664 825.819 471.485 820.391 465.952 813.361C460.804 806.82 457.559 798.522 455.285 790.462C450.724 774.303 448.586 753.362 446.676 734.261C444.677 714.28 442.912 696.155 439.503 682.918C437.789 676.263 436.003 672.324 434.563 670.335C434.463 670.195 434.372 670.079 434.294 669.981C433.616 670.178 432.601 670.765 430.942 672.514C427.851 675.771 425.284 679.982 420.61 686.8C412.343 698.858 398.971 716.444 372.665 716.826C372.35 716.85 372.064 716.868 371.854 716.877C371.29 716.904 370.634 716.921 369.975 716.934C368.628 716.961 366.837 716.977 364.808 716.985C360.727 717.002 355.419 716.991 350.183 716.969C344.937 716.946 339.728 716.912 335.832 716.885C333.884 716.871 332.263 716.858 331.129 716.849C330.562 716.845 330.115 716.842 329.811 716.839C329.659 716.838 329.543 716.837 329.464 716.836C329.424 716.836 329.394 716.835 329.374 716.835H329.344C321.009 716.763 314.31 709.949 314.382 701.615C314.453 693.281 321.268 686.583 329.602 686.654H329.631C329.65 686.654 329.679 686.655 329.718 686.655C329.795 686.656 329.91 686.657 330.061 686.658C330.362 686.661 330.805 686.664 331.368 686.669C332.496 686.678 334.108 686.69 336.047 686.704C339.926 686.732 345.104 686.765 350.31 686.787C355.525 686.809 360.733 686.82 364.683 686.803C366.426 686.796 367.873 686.781 368.951 686.763L369.27 686.654H371.792C382.315 686.654 387.978 681.021 395.716 669.734C399.089 664.813 403.785 657.284 409.05 651.737C414.901 645.572 423.315 639.698 435.108 639.698L435.618 639.703C446.27 639.884 454.023 645.742 459.017 652.644C463.747 659.182 466.68 667.427 468.731 675.391C472.852 691.392 474.806 712.253 476.707 731.257C478.696 751.14 480.64 769.183 484.332 782.263C486.183 788.823 488.106 792.708 489.67 794.695C489.808 794.871 489.935 795.017 490.047 795.141C490.218 794.923 490.418 794.651 490.644 794.313C492.606 791.394 494.774 786.131 496.817 777.979C500.868 761.81 503.175 739.77 505.612 716.12C507.97 693.24 510.46 668.749 515.153 650.02C517.482 640.724 520.674 631.447 525.552 624.187C530.627 616.636 538.873 609.516 550.806 609.516L551.715 609.529ZM611 740.307C611.108 740.314 611.166 740.304 611.169 740.304C611.111 740.304 611.055 740.305 611 740.307Z" fill="white"/>
</svg>
