<svg width="1024" height="1024" viewBox="0 0 1024 1024" fill="none" xmlns="http://www.w3.org/2000/svg">
<path d="M691.24 315.457C700.61 315.287 710.173 317.473 719.064 322.229C747.515 337.448 758.512 373.414 743.655 402.556C728.815 431.661 693.783 442.966 665.342 427.819H665.259C636.808 412.6 625.774 376.634 640.632 347.492C650.847 327.457 670.615 315.841 691.23 315.496L691.24 315.457ZM711.111 587.325L791.345 429.751C800.361 413.38 805.597 394.503 805.911 374.389C806.915 310.024 756.802 257.028 693.964 256H691.022C629.517 256.587 579.373 307.309 578.385 370.668C578.071 390.751 582.696 409.764 591.171 426.403C591.226 426.488 591.254 426.488 591.282 426.517L673.185 587.325C673.185 587.325 682.667 606.815 692.148 606.815C701.63 606.815 711.111 587.325 711.111 587.325Z" fill="#E6EDEF"/>
<path d="M398.222 316.212C398.222 282.958 372.752 256 341.333 256C309.915 256 284.444 282.958 284.444 316.212V461.269C284.444 494.523 309.915 521.481 341.333 521.481C372.752 521.481 398.222 494.523 398.222 461.269V316.212Z" fill="#E6EDEF"/>
<path d="M327.111 659.911V578.37C327.111 570.516 333.479 564.148 341.333 564.148C349.188 564.148 355.556 570.516 355.556 578.37V659.911C355.556 667.766 349.188 674.133 341.333 674.133C333.479 674.133 327.111 667.766 327.111 659.911Z" fill="#E6EDEF"/>
<path d="M446.155 459.861C454.005 460.151 460.132 466.75 459.842 474.599C458.76 503.849 445.716 531.386 423.728 551.529C401.765 571.648 372.559 582.879 342.238 583.107C311.918 583.335 282.531 572.545 260.239 552.766C237.921 532.965 224.414 505.635 222.836 476.408C222.413 468.565 228.427 461.862 236.271 461.439C244.114 461.016 250.815 467.031 251.238 474.875C252.391 496.233 262.271 516.542 279.117 531.489C295.989 546.458 318.517 554.84 342.024 554.664C365.531 554.487 387.906 545.768 404.514 530.554C421.095 515.365 430.627 494.919 431.417 473.548C431.707 465.699 438.306 459.571 446.155 459.861Z" fill="#E6EDEF"/>
<path d="M222.814 474.074V398.222C222.814 390.367 229.182 384 237.037 384C244.892 384 251.26 390.367 251.26 398.222V474.074C251.26 481.928 244.892 488.296 237.037 488.296C229.182 488.296 222.814 481.928 222.814 474.074Z" fill="#E6EDEF"/>
<path d="M431.407 474.074V398.222C431.407 390.367 437.775 384 445.63 384C453.484 384 459.852 390.367 459.852 398.222V474.074C459.852 481.928 453.484 488.296 445.63 488.296C437.775 488.296 431.407 481.928 431.407 474.074Z" fill="#E6EDEF"/>
<path d="M550.783 573.642C559.59 573.895 566.592 578.028 571.635 583.674C576.469 589.086 579.617 595.945 581.867 602.486C586.339 615.489 588.877 632.358 591.248 647.244C593.765 663.044 596.129 676.898 599.878 686.827C602.588 694.004 604.781 696.077 605.933 696.666C606.558 696.091 607.689 694.898 609.359 692.547C611.181 689.981 613.109 686.822 615.401 682.948C617.6 679.229 620.148 674.825 622.874 670.478C633.538 653.475 650.862 630.712 682.58 630.519H692.148C700.002 630.519 706.37 636.886 706.37 644.74C706.37 652.595 700.002 658.963 692.148 658.963H682.753L682.022 658.975C666.752 659.386 656.918 669.732 646.972 685.591C644.506 689.522 642.271 693.392 639.885 697.427C637.591 701.306 635.131 705.383 632.551 709.016C628.161 715.198 619.948 725.333 606.815 725.333C587.43 725.333 577.964 709.312 573.268 696.876C568.29 683.695 565.55 666.733 563.158 651.719C560.621 635.79 558.446 621.844 554.969 611.737C553.244 606.722 551.608 603.951 550.421 602.622C550.386 602.583 550.352 602.548 550.32 602.513C550.154 602.724 549.958 602.989 549.735 603.322C547.886 606.073 545.842 611.033 543.917 618.716C540.099 633.954 537.926 654.725 535.628 677.014C533.406 698.577 531.06 721.658 526.637 739.309C524.442 748.07 521.434 756.813 516.836 763.655C512.054 770.771 504.283 777.482 493.037 777.482C482.88 777.482 475.172 772.366 469.957 765.74C465.106 759.576 462.048 751.755 459.904 744.159C455.605 728.931 453.591 709.196 451.79 691.194C449.907 672.363 448.244 655.281 445.031 642.806C443.415 636.534 441.732 632.822 440.375 630.948C440.28 630.816 440.194 630.707 440.121 630.614C439.482 630.8 438.526 631.353 436.962 633.001C434.049 636.071 431.63 640.039 427.225 646.465C419.434 657.829 406.832 674.402 382.04 674.762C381.743 674.785 381.474 674.802 381.276 674.811C380.744 674.836 380.126 674.852 379.505 674.865C378.236 674.89 376.548 674.904 374.635 674.912C370.79 674.928 365.787 674.918 360.852 674.897C355.908 674.876 350.999 674.844 347.327 674.818C345.492 674.805 343.964 674.793 342.895 674.784C342.36 674.78 341.939 674.777 341.653 674.775C341.51 674.773 341.4 674.772 341.325 674.772C341.288 674.771 341.26 674.771 341.241 674.771H341.212C333.358 674.703 327.044 668.281 327.112 660.427C327.179 652.573 333.601 646.26 341.455 646.327H341.483C341.501 646.328 341.529 646.328 341.565 646.328C341.638 646.329 341.746 646.33 341.888 646.331C342.172 646.334 342.589 646.337 343.12 646.341C344.183 646.349 345.703 646.361 347.53 646.374C351.185 646.4 356.066 646.432 360.972 646.452C365.887 646.473 370.794 646.483 374.518 646.468C376.16 646.461 377.524 646.447 378.539 646.43L378.84 646.327H381.217C391.134 646.327 396.471 641.018 403.764 630.381C406.943 625.744 411.369 618.648 416.33 613.42C421.845 607.61 429.775 602.074 440.889 602.074L441.369 602.078C451.408 602.249 458.715 607.77 463.421 614.275C467.879 620.437 470.643 628.207 472.576 635.712C476.46 650.792 478.302 670.452 480.093 688.363C481.967 707.101 483.799 724.106 487.279 736.433C489.023 742.615 490.836 746.276 492.31 748.149C492.44 748.314 492.56 748.453 492.665 748.57C492.826 748.363 493.014 748.107 493.228 747.789C495.077 745.038 497.12 740.078 499.045 732.395C502.863 717.157 505.037 696.386 507.334 674.097C509.557 652.534 511.903 629.453 516.325 611.802C518.521 603.041 521.529 594.298 526.126 587.456C530.909 580.339 538.681 573.629 549.926 573.629L550.783 573.642ZM606.656 696.892C606.757 696.899 606.812 696.889 606.815 696.889C606.76 696.889 606.707 696.89 606.656 696.892Z" fill="#E6EDEF"/>
</svg>
